<?xml version="1.0" encoding="iso-8859-1"?>
<!-- Uploaded to: SVG Repo, www.svgrepo.com, Generator: SVG Repo Mixer Tools -->
<svg height="800px" width="800px" version="1.1" id="Capa_1" xmlns="http://www.w3.org/2000/svg" xmlns:xlink="http://www.w3.org/1999/xlink" 
	 viewBox="0 0 512 512" xml:space="preserve">
<path style="fill:#6A56CF;" d="M431.543,339.318c-12.117,0-21.943,9.826-21.943,21.943v71.646c0,10.99-8.94,19.931-19.931,19.931
	H256c-12.117,0-21.943,9.825-21.943,21.943c0,12.118,9.826,21.943,21.943,21.943h133.669c35.189,0,63.817-28.628,63.817-63.817
	v-71.646C453.486,349.145,443.663,339.318,431.543,339.318z"/>
<path style="fill:#2D4175;" d="M331.154,438.212H256c-12.117,0-21.943,9.825-21.943,21.943v29.257
	c0,12.118,9.826,21.943,21.943,21.943h75.154c12.12,0,21.943-9.825,21.943-21.943v-29.257
	C353.097,448.035,343.274,438.212,331.154,438.212z"/>
<path style="fill:#9E8CEC;" d="M453.051,184.273c-3.3-49.898-25.277-96.222-61.883-130.434
	C357.534,22.404,314.405,3.923,268.591,1.052c-0.38-0.025-0.762-0.045-1.145-0.066c-1.477-0.086-2.956-0.152-4.437-0.205
	c-0.48-0.016-0.96-0.037-1.442-0.05c-1.852-0.051-3.705-0.086-5.566-0.086c-1.858,0-3.711,0.034-5.566,0.086
	c-0.48,0.013-0.96,0.034-1.442,0.05c-1.48,0.051-2.956,0.118-4.434,0.205c-0.383,0.02-0.765,0.041-1.151,0.066
	c-45.812,2.872-88.94,21.352-122.574,52.789c-2.883,2.695-5.663,5.471-8.363,8.312c0,0.001,0,0.001,0,0.001
	c-31.577,33.227-50.48,76.152-53.517,122.122c-0.8,12.093,8.354,22.543,20.449,23.341c0.492,0.034,0.98,0.048,1.469,0.048
	c11.457,0,21.106-8.896,21.874-20.496c1.616-24.484,9.057-47.34,20.906-67.275h264.705c11.849,19.936,19.289,42.79,20.909,67.274
	c0.797,12.092,11.232,21.248,23.343,20.448C444.697,206.814,453.851,196.364,453.051,184.273z"/>
<path style="fill:#5B699C;" d="M124.343,163.777h-102.4C9.823,163.777,0,173.602,0,185.718v175.543
	c0,12.12,9.823,21.943,21.943,21.943h102.4c12.12,0,21.943-9.823,21.943-21.943V185.718
	C146.286,173.602,136.463,163.777,124.343,163.777z"/>
<path style="fill:#6A56CF;" d="M453.051,184.273c-3.3-49.898-25.277-96.222-61.883-130.434
	C357.534,22.404,314.405,3.923,268.591,1.052c-0.38-0.025-0.762-0.045-1.145-0.066c-1.477-0.086-2.956-0.152-4.437-0.205
	c-0.48-0.016-0.96-0.037-1.442-0.05c-1.852-0.051-3.705-0.086-5.563-0.086v119.248h132.352
	c11.849,19.936,19.289,42.79,20.909,67.274c0.797,12.092,11.232,21.248,23.343,20.448
	C444.697,206.814,453.851,196.364,453.051,184.273z"/>
<path style="fill:#2D4175;" d="M490.057,163.777h-102.4c-12.117,0-21.943,9.825-21.943,21.941v175.543
	c0,12.12,9.826,21.943,21.943,21.943h102.4c12.12,0,21.943-9.823,21.943-21.943V185.718
	C512,173.602,502.177,163.777,490.057,163.777z"/>
</svg>